<?xml version="1.0" encoding="UTF-8"?><svg id="a" xmlns="http://www.w3.org/2000/svg" viewBox="0 0 24 24"><path d="M12.0005,20.6235c-.6201,0-1.1245-.5039-1.1245-1.124v-8.6353c-1.9365.2373-3.4277,1.9004-3.4277,3.8667v1.2627c0,.6201-.5044,1.124-1.1245,1.124s-1.1245-.5039-1.1245-1.124v-1.2627c0-3.2163,2.48-5.8696,5.6768-6.1128v-1.3926h-3.4565c-.666,0-1.208-.5044-1.208-1.1245s.542-1.1245,1.208-1.1245h9.0054c.666,0,1.208.5044,1.208,1.1245s-.542,1.1245-1.208,1.1245h-3.2998v1.3926c3.1865.2432,5.666,2.896,5.6758,6.1118v1.2637c0,.6201-.5039,1.124-1.124,1.124s-1.124-.5039-1.124-1.124v-1.2627c0-1.9653-1.4912-3.6284-3.4277-3.8667v8.6353c0,.6201-.5039,1.124-1.1245,1.124Z" style="fill-rule:evenodd;"/><circle cx="12" cy="12" r="10.875" style="fill:none; stroke:#000; stroke-miterlimit:10; stroke-width:2.25px;"/></svg>
